<?xml version="1.0" encoding="UTF-8"?>
<svg version="1.1" xmlns="http://www.w3.org/2000/svg" width="100" height="100">
<path d="M0 0 C1.77236526 -0.01913956 1.77236526 -0.01913956 3.58053589 -0.03866577 C4.85349518 -0.04089142 6.12645447 -0.04311707 7.43798828 -0.04541016 C8.74986115 -0.05206696 10.06173401 -0.05872375 11.4133606 -0.06558228 C14.18901866 -0.07754461 16.96455236 -0.08126421 19.74023438 -0.08007812 C23.28671216 -0.07987504 26.83238765 -0.1071695 30.37867546 -0.14162254 C33.77345794 -0.1692883 37.1680946 -0.16804202 40.56298828 -0.17041016 C42.46635452 -0.19196671 42.46635452 -0.19196671 44.40817261 -0.21395874 C55.57522554 -0.15611308 55.57522554 -0.15611308 60.13330078 4.29052734 C62.23225059 7.59941037 62.39535504 10.27702628 62.42382812 14.15722656 C62.43658783 15.33880341 62.44934753 16.52038025 62.4624939 17.73776245 C62.46471954 19.01072174 62.46694519 20.28368103 62.46923828 21.59521484 C62.47922348 23.56302414 62.47922348 23.56302414 62.4894104 25.57058716 C62.50137273 28.34624522 62.50509234 31.12177892 62.50390625 33.89746094 C62.50370316 37.44393872 62.53099763 40.98961422 62.56545067 44.53590202 C62.59311643 47.9306845 62.59187014 51.32532116 62.59423828 54.72021484 C62.60860931 55.98912567 62.62298035 57.2580365 62.63778687 58.56539917 C62.5799412 69.7324521 62.5799412 69.7324521 58.13330078 74.29052734 C54.82441776 76.38947715 52.14680184 76.55258161 48.26660156 76.58105469 C47.08502472 76.59381439 45.90344788 76.6065741 44.68606567 76.61972046 C43.41310638 76.62194611 42.14014709 76.62417175 40.82861328 76.62646484 C39.51674042 76.63312164 38.20486755 76.63977844 36.85324097 76.64663696 C34.07758291 76.65859929 31.3020492 76.6623189 28.52636719 76.66113281 C24.9798894 76.66092973 21.43421391 76.68822419 17.8879261 76.72267723 C14.49314362 76.75034299 11.09850696 76.74909671 7.70361328 76.75146484 C5.80024704 76.77302139 5.80024704 76.77302139 3.85842896 76.79501343 C-7.30862397 76.73716777 -7.30862397 76.73716777 -11.86669922 72.29052734 C-13.84957972 69.43023465 -14.10847183 67.1817006 -14.06201172 63.74365234 C-14.05556641 62.89931641 -14.04912109 62.05498047 -14.04248047 61.18505859 C-14.02572266 60.31236328 -14.00896484 59.43966797 -13.99169922 58.54052734 C-13.98267578 57.65236328 -13.97365234 56.76419922 -13.96435547 55.84912109 C-13.94084499 53.66264677 -13.90798421 51.4767264 -13.86669922 49.29052734 C-9.66608272 50.08658326 -6.45316067 50.84868125 -2.86669922 53.29052734 C-1.65420651 55.53930274 -0.72840619 57.82394981 0.21533203 60.19677734 C1.40789873 62.91684436 2.4238041 64.05190029 5.13330078 65.29052734 C10.73628891 66.77056194 14.11780365 66.18408338 19.13330078 63.29052734 C21.55828139 60.38055062 22.10108635 58.7059492 22.39501953 54.91552734 C23.52382593 49.37302822 26.74433236 47.55995886 31.07470703 44.23193359 C34.64653645 41.96475707 37.89713007 40.87124492 41.97314453 39.87646484 C45.85058625 38.82471754 48.11057336 36.99507305 50.16455078 33.57177734 C52.32369865 28.88121473 52.33255713 25.26917457 50.92236328 20.33349609 C49.18473132 15.8345777 47.02310785 13.80387758 42.88330078 11.41552734 C37.04191816 9.66311256 33.1915104 10.20317132 27.82080078 13.04052734 C23.41417431 16.72979602 22.17123191 20.00239199 20.88330078 25.47802734 C19.26677767 31.6593437 16.67691991 36.73787517 12.13330078 41.29052734 C9.30831545 42.70570026 7.36015488 42.92620511 4.13330078 43.29052734 C3.35728516 43.51353516 2.58126953 43.73654297 1.78173828 43.96630859 C-1.77767329 44.40204777 -3.86425437 43.36550892 -7.11669922 41.91552734 C-8.17373047 41.45404297 -9.23076172 40.99255859 -10.31982422 40.51708984 C-12.86669922 39.29052734 -12.86669922 39.29052734 -13.86669922 38.29052734 C-14.13379174 34.1073059 -14.13804048 29.91802065 -14.16186523 25.72729492 C-14.17899092 23.62855379 -14.22284445 21.5314245 -14.26708984 19.43310547 C-14.27722457 18.09001808 -14.28573824 16.7469173 -14.29248047 15.40380859 C-14.30706299 14.1847583 -14.32164551 12.96570801 -14.33666992 11.7097168 C-13.76958417 7.58398383 -12.51126353 5.47869815 -9.86669922 2.29052734 C-6.58385398 0.16153512 -3.86719594 0.02837766 0 0 Z " fill="#FFFFFF" transform="translate(25.86669921875,11.70947265625)"/>
<path d="M0 0 C2.87029869 1.79393668 4.49131638 2.98263276 6 6 C6.55512815 10.63213493 6.6364242 13.98172127 4.125 18 C0.59185943 21.32530877 -2.04661263 21.33074386 -6.73828125 21.29296875 C-10.0542278 20.86344199 -11.74987627 19.39075646 -14 17 C-15.72869779 13.54260443 -15.48966895 9.78024432 -15 6 C-11.10231905 -0.23628951 -6.98983895 -0.90541955 0 0 Z M-8.8125 6.1875 C-10.42525784 8.64907776 -10.4334014 10.11065736 -10 13 C-8.91666667 14.91666667 -8.91666667 14.91666667 -7 16 C-4.11065736 16.4334014 -2.64907776 16.42525784 -0.1875 14.8125 C1.42525784 12.35092224 1.4334014 10.88934264 1 8 C-0.08333333 6.08333333 -0.08333333 6.08333333 -2 5 C-4.88934264 4.5665986 -6.35092224 4.57474216 -8.8125 6.1875 Z " fill="#FFFFFF" transform="translate(67,27)"/>
<path d="M0 0 C3.57703045 0.06275492 4.66800666 0.32312666 7.8125 2.3125 C10.419717 6.43358493 10.78945854 9.62441677 9.75 14.375 C7.8125 17.4375 7.8125 17.4375 4.75 19.375 C1.59409643 20.06553225 -1.09817948 20.09883582 -4.25 19.375 C-7.3125 17.0625 -7.3125 17.0625 -9.25 14.375 C-9.25 13.385 -9.25 12.395 -9.25 11.375 C-7.6721875 11.87 -7.6721875 11.87 -6.0625 12.375 C-2.86126643 13.21466782 -0.5088992 13.57250904 2.75 13.375 C3.49957157 9.90352158 3.49957157 9.90352158 3.75 6.375 C2.821875 6.106875 1.89375 5.83875 0.9375 5.5625 C-2.01240366 4.46351629 -3.30615186 3.75081439 -5.25 1.375 C-3.69049449 -0.18450551 -2.16122869 0.09303302 0 0 Z " fill="#FFFFFF" transform="translate(36.25,55.625)"/>
</svg>
