<?xml version="1.0" standalone="no" ?>
<!DOCTYPE svg PUBLIC "-//W3C//DTD SVG 20010904//EN" "http://www.w3.org/TR/2001/REC-SVG-20010904/DTD/svg10.dtd">
<svg version="1.0" xmlns="http://www.w3.org/2000/svg" width="99.500000pt" height="99.284740pt" viewBox="0 0 99.500000 99.284740" preserveAspectRatio="xMidYMid meet">
<style>
  g { fill: #000000; }
  @media (prefers-color-scheme: dark) { g { fill: #ffffff; } }
</style>
<g transform="translate(0.000000,99.784740) scale(0.100000,-0.100000)" stroke="none">
<path
			d="M95 986 c-37 -17 -70 -52 -84 -89 -6 -16 -11 -106 -11 -211 l0 -182
97 -41 97 -41 27 20 c15 11 47 22 71 25 41 5 45 8 97 86 41 62 55 92 58 127
13 158 177 254 317 184 78 -40 120 -109 121 -199 0 -109 -70 -191 -185 -216
-43 -9 -71 -25 -127 -71 -62 -51 -73 -64 -73 -90 0 -18 -10 -51 -21 -76 -64
-131 -254 -131 -318 0 -11 25 -21 53 -21 64 0 18 -18 28 -128 71 -11 5 -13
-18 -10 -120 3 -136 10 -155 72 -201 27 -20 39 -21 426 -21 387 0 399 1 426
21 15 11 37 33 48 48 20 27 21 39 21 426 0 387 -1 399 -21 426 -11 15 -33 37
-48 48 -26 20 -41 21 -414 23 -307 2 -393 0 -417 -11z"
		/>
<path d="M593 780 c-115 -70 -63 -250 72 -250 80 0 135 58 135 144 0 43 -4 53
-39 87 -34 35 -44 39 -87 39 -31 0 -61 -7 -81 -20z m128 -59 c35 -36 37 -70 5
-107 -18 -21 -32 -28 -60 -28 -76 0 -110 90 -52 140 37 32 71 30 107 -5z" />
<path d="M280 408 c-24 -10 -24 -11 27 -34 89 -40 108 -109 39 -143 -26 -12
-34 -11 -87 12 -62 27 -70 23 -43 -19 49 -73 170 -70 209 6 35 69 8 147 -61
176 -39 16 -50 17 -84 2z" />
</g>
</svg>
